G04 #@! TF.GenerationSoftware,KiCad,Pcbnew,(5.1.9)-1*
G04 #@! TF.CreationDate,2022-07-06T14:17:00-05:00*
G04 #@! TF.ProjectId,hom3c0ming_boutonniere,686f6d33-6330-46d6-996e-675f626f7574,2*
G04 #@! TF.SameCoordinates,Original*
G04 #@! TF.FileFunction,Copper,L1,Top*
G04 #@! TF.FilePolarity,Positive*
%FSLAX46Y46*%
G04 Gerber Fmt 4.6, Leading zero omitted, Abs format (unit mm)*
G04 Created by KiCad (PCBNEW (5.1.9)-1) date 2022-07-06 14:17:00*
%MOMM*%
%LPD*%
G01*
G04 APERTURE LIST*
G04 #@! TA.AperFunction,ComponentPad*
%ADD10R,1.700000X1.700000*%
G04 #@! TD*
G04 #@! TA.AperFunction,ComponentPad*
%ADD11C,1.700000*%
G04 #@! TD*
G04 #@! TA.AperFunction,ComponentPad*
%ADD12R,1.800000X1.800000*%
G04 #@! TD*
G04 #@! TA.AperFunction,ComponentPad*
%ADD13C,1.800000*%
G04 #@! TD*
G04 #@! TA.AperFunction,ComponentPad*
%ADD14R,1.070000X1.800000*%
G04 #@! TD*
G04 #@! TA.AperFunction,ComponentPad*
%ADD15O,1.070000X1.800000*%
G04 #@! TD*
G04 #@! TA.AperFunction,ComponentPad*
%ADD16C,2.500000*%
G04 #@! TD*
G04 #@! TA.AperFunction,ComponentPad*
%ADD17C,1.400000*%
G04 #@! TD*
G04 #@! TA.AperFunction,ComponentPad*
%ADD18C,1.600000*%
G04 #@! TD*
G04 #@! TA.AperFunction,ComponentPad*
%ADD19C,1.727200*%
G04 #@! TD*
G04 #@! TA.AperFunction,ComponentPad*
%ADD20O,1.727200X1.727200*%
G04 #@! TD*
G04 #@! TA.AperFunction,ComponentPad*
%ADD21R,1.727200X1.727200*%
G04 #@! TD*
G04 #@! TA.AperFunction,Conductor*
%ADD22C,0.300000*%
G04 #@! TD*
G04 APERTURE END LIST*
D10*
X112049260Y-103000000D03*
D11*
X132049260Y-103000000D03*
D12*
X121894600Y-75542140D03*
D13*
X124434600Y-75542140D03*
D14*
X121300240Y-57950100D03*
D15*
X122570240Y-57950100D03*
X123840240Y-57950100D03*
X125110240Y-57950100D03*
D16*
X115084220Y-89540000D03*
X112584220Y-84500000D03*
X117584220Y-84500000D03*
X131225920Y-89540000D03*
X128725920Y-84500000D03*
X133725920Y-84500000D03*
X123158880Y-89540000D03*
X120658880Y-84500000D03*
X125658880Y-84500000D03*
D17*
X116883180Y-55153560D03*
X116883180Y-62773560D03*
X129590800Y-62831980D03*
X129590800Y-55211980D03*
X127043180Y-64836040D03*
X119423180Y-64836040D03*
X127017780Y-72344280D03*
X119397780Y-72344280D03*
D18*
X113100000Y-76600000D03*
X113100000Y-74100000D03*
X113100000Y-79100000D03*
D19*
X125710000Y-105830000D03*
X125710000Y-108370000D03*
D20*
X123170000Y-105830000D03*
X123170000Y-108370000D03*
X120630000Y-105830000D03*
D21*
X120630000Y-108370000D03*
D22*
X113100000Y-76600000D02*
X114700000Y-78200000D01*
X114700000Y-78200000D02*
X114700000Y-86000000D01*
X112049260Y-88650740D02*
X112049260Y-103000000D01*
X114700000Y-86000000D02*
X112049260Y-88650740D01*
X114879260Y-105830000D02*
X112049260Y-103000000D01*
X120630000Y-105830000D02*
X114879260Y-105830000D01*
X127848360Y-55211980D02*
X125110240Y-57950100D01*
X129590800Y-55211980D02*
X127848360Y-55211980D01*
X127043180Y-64836040D02*
X127043180Y-63596520D01*
X123840240Y-60393580D02*
X123840240Y-57950100D01*
X127043180Y-63596520D02*
X123840240Y-60393580D01*
X118503700Y-55153560D02*
X121300240Y-57950100D01*
X116883180Y-55153560D02*
X118503700Y-55153560D01*
X119397780Y-72344280D02*
X122644280Y-72344280D01*
X124434600Y-74134600D02*
X124434600Y-75542140D01*
X122644280Y-72344280D02*
X124434600Y-74134600D01*
X116883180Y-65283180D02*
X116883180Y-62773560D01*
X117584220Y-84500000D02*
X117584220Y-83515780D01*
X117584220Y-83515780D02*
X119500000Y-81600000D01*
X119500000Y-81600000D02*
X127200000Y-81600000D01*
X130800000Y-78000000D02*
X130800000Y-73900000D01*
X124100000Y-64800000D02*
X121800000Y-64800000D01*
X127200000Y-81600000D02*
X130800000Y-78000000D01*
X130800000Y-73900000D02*
X128300000Y-71400000D01*
X121800000Y-64800000D02*
X119900000Y-66700000D01*
X128300000Y-71400000D02*
X128300000Y-67700000D01*
X118300000Y-66700000D02*
X116883180Y-65283180D01*
X128300000Y-67700000D02*
X127700000Y-67100000D01*
X127700000Y-67100000D02*
X126400000Y-67100000D01*
X126400000Y-67100000D02*
X124100000Y-64800000D01*
X119900000Y-66700000D02*
X118300000Y-66700000D01*
X129712720Y-62953900D02*
X129590800Y-62831980D01*
X133725920Y-84500000D02*
X133725920Y-75025920D01*
X129590800Y-70890800D02*
X129590800Y-62831980D01*
X133725920Y-75025920D02*
X129590800Y-70890800D01*
X124200000Y-64000000D02*
X120259220Y-64000000D01*
X128000000Y-66500000D02*
X126700000Y-66500000D01*
X128900000Y-67400000D02*
X128000000Y-66500000D01*
X128900000Y-71200000D02*
X128900000Y-67400000D01*
X120259220Y-64000000D02*
X119423180Y-64836040D01*
X131400000Y-73700000D02*
X128900000Y-71200000D01*
X131400000Y-78758880D02*
X131400000Y-73700000D01*
X126700000Y-66500000D02*
X124200000Y-64000000D01*
X125658880Y-84500000D02*
X131400000Y-78758880D01*
X113100000Y-74100000D02*
X114600000Y-74100000D01*
X114600000Y-74100000D02*
X115400000Y-74900000D01*
X115400000Y-89224220D02*
X115084220Y-89540000D01*
X115400000Y-74900000D02*
X115400000Y-89224220D01*
X115084220Y-89540000D02*
X123158880Y-89540000D01*
X123158880Y-89540000D02*
X131225920Y-89540000D01*
X115400000Y-74900000D02*
X116100000Y-74900000D01*
X116100000Y-74900000D02*
X119700000Y-78500000D01*
X119700000Y-78500000D02*
X126100000Y-78500000D01*
X127017780Y-77582220D02*
X127017780Y-72344280D01*
X126100000Y-78500000D02*
X127017780Y-77582220D01*
M02*
