M48
; DRILL file {KiCad (5.1.9)-1} date 07/06/22 14:17:48
; FORMAT={2:4/ absolute / inch / suppress leading zeros}
; #@! TF.CreationDate,2022-07-06T14:17:48-05:00
; #@! TF.GenerationSoftware,Kicad,Pcbnew,(5.1.9)-1
; #@! TF.FileFunction,Plated,1,2,PTH
FMAT,2
INCH,TZ
T1C0.0276
T2C0.0354
T3C0.0394
T4C0.0400
T5C0.0472
%
G90
G05
T1
X46017Y-21714
X46017Y-24714
X47007Y-28482
X47017Y-25526
X50007Y-28482
X50017Y-25526
X51020Y-21737
X51020Y-24737
T2
X47756Y-22815
X47990Y-29741
X48256Y-22815
X48756Y-22815
X48990Y-29741
X49256Y-22815
T3
X44114Y-40551
X44528Y-29173
X44528Y-30157
X44528Y-31142
X51988Y-40551
T4
X47492Y-41665
X47492Y-42665
X48492Y-41665
X48492Y-42665
X49492Y-41665
X49492Y-42665
T5
X44324Y-33268
X45309Y-35252
X46293Y-33268
X47503Y-33268
X48488Y-35252
X49472Y-33268
X50679Y-33268
X51664Y-35252
X52648Y-33268
T0
M30
