G04 #@! TF.GenerationSoftware,KiCad,Pcbnew,(5.1.9)-1*
G04 #@! TF.CreationDate,2022-06-27T18:25:20-05:00*
G04 #@! TF.ProjectId,hom3c0ming_corsage,686f6d33-6330-46d6-996e-675f636f7273,4*
G04 #@! TF.SameCoordinates,Original*
G04 #@! TF.FileFunction,Profile,NP*
%FSLAX46Y46*%
G04 Gerber Fmt 4.6, Leading zero omitted, Abs format (unit mm)*
G04 Created by KiCad (PCBNEW (5.1.9)-1) date 2022-06-27 18:25:20*
%MOMM*%
%LPD*%
G01*
G04 APERTURE LIST*
G04 #@! TA.AperFunction,Profile*
%ADD10C,0.050000*%
G04 #@! TD*
G04 APERTURE END LIST*
D10*
X120685000Y-42545000D02*
X121320000Y-42672000D01*
X119034000Y-42418000D02*
X118272000Y-42418000D01*
X116113000Y-42926000D02*
X116748000Y-42672000D01*
X122463000Y-43434000D02*
X122717000Y-43815000D01*
X115224000Y-44450000D02*
X115351000Y-43815000D01*
X119796000Y-42418000D02*
X120685000Y-42545000D01*
X121955000Y-42926000D02*
X122463000Y-43434000D01*
X115605000Y-43434000D02*
X116113000Y-42926000D01*
X115224000Y-47523400D02*
X115224000Y-44450000D01*
X122717000Y-43815000D02*
X122844000Y-44450000D01*
X121320000Y-42672000D02*
X121955000Y-42926000D01*
X116748000Y-42672000D02*
X117256000Y-42545000D01*
X122844000Y-47523400D02*
X122844000Y-44450000D01*
X115351000Y-43815000D02*
X115605000Y-43434000D01*
X117256000Y-42545000D02*
X118272000Y-42418000D01*
X119034000Y-42418000D02*
X119796000Y-42418000D01*
X122844000Y-47523400D02*
X115224000Y-47523400D01*
X157896000Y-42926000D02*
X158531000Y-42672000D01*
X160817000Y-42418000D02*
X160055000Y-42418000D01*
X162468000Y-42545000D02*
X163103000Y-42672000D01*
X157007000Y-44450000D02*
X157134000Y-43815000D01*
X164246000Y-43434000D02*
X164500000Y-43815000D01*
X164500000Y-43815000D02*
X164627000Y-44450000D01*
X163103000Y-42672000D02*
X163738000Y-42926000D01*
X158531000Y-42672000D02*
X159039000Y-42545000D01*
X163738000Y-42926000D02*
X164246000Y-43434000D01*
X159039000Y-42545000D02*
X160055000Y-42418000D01*
X161579000Y-42418000D02*
X162468000Y-42545000D01*
X157388000Y-43434000D02*
X157896000Y-42926000D01*
X157134000Y-43815000D02*
X157388000Y-43434000D01*
X160817000Y-42418000D02*
X161579000Y-42418000D01*
X164627000Y-47523400D02*
X157007000Y-47523400D01*
X157007000Y-47523400D02*
X157007000Y-44450000D01*
X164627000Y-47523400D02*
X164627000Y-44450000D01*
X154127200Y-141351000D02*
X152044400Y-141960600D01*
X157454600Y-140335000D02*
X154127200Y-141351000D01*
X160756600Y-139039600D02*
X157454600Y-140335000D01*
X162941000Y-138099800D02*
X160756600Y-139039600D01*
X166776400Y-136118600D02*
X162941000Y-138099800D01*
X170789600Y-133604000D02*
X166776400Y-136118600D01*
X173913800Y-131216400D02*
X170789600Y-133604000D01*
X175158400Y-130149600D02*
X173913800Y-131216400D01*
X176225200Y-129209800D02*
X175158400Y-130149600D01*
X176885600Y-128625600D02*
X176225200Y-129209800D01*
X177520600Y-128320800D02*
X176885600Y-128625600D01*
X178130200Y-128092200D02*
X177520600Y-128320800D01*
X178739800Y-128092200D02*
X178130200Y-128092200D01*
X179146200Y-128219200D02*
X178739800Y-128092200D01*
X179371523Y-128439465D02*
X179146200Y-128219200D01*
X148590000Y-142671800D02*
X152044400Y-141960600D01*
X143967200Y-143103600D02*
X148590000Y-142671800D01*
X141221460Y-143286480D02*
X143967200Y-143103600D01*
X136903460Y-143286480D02*
X141221460Y-143286480D01*
X132562600Y-142849600D02*
X136903460Y-143286480D01*
X127635000Y-141935200D02*
X132562600Y-142849600D01*
X123520200Y-140843000D02*
X127635000Y-141935200D01*
X120396000Y-139700000D02*
X123520200Y-140843000D01*
X117932200Y-138658600D02*
X120396000Y-139700000D01*
X115163600Y-137261600D02*
X117932200Y-138658600D01*
X113258600Y-136220200D02*
X115163600Y-137261600D01*
X111252000Y-134975600D02*
X113258600Y-136220200D01*
X109143800Y-133604000D02*
X111252000Y-134975600D01*
X107264200Y-132130800D02*
X109143800Y-133604000D01*
X106045000Y-131216400D02*
X107264200Y-132130800D01*
X104749600Y-130149600D02*
X106045000Y-131216400D01*
X104013000Y-129438400D02*
X104749600Y-130149600D01*
X103682800Y-129159000D02*
X104013000Y-129438400D01*
X102997000Y-128828800D02*
X103682800Y-129159000D01*
X102336600Y-128600200D02*
X102997000Y-128828800D01*
X101828600Y-128549400D02*
X102336600Y-128600200D01*
X101396800Y-128701800D02*
X101828600Y-128549400D01*
X101195139Y-128900094D02*
X101396800Y-128701800D01*
X173532800Y-45516800D02*
X174643971Y-46462130D01*
X171983400Y-44196000D02*
X173532800Y-45516800D01*
X168706800Y-41859200D02*
X171983400Y-44196000D01*
X165709600Y-40081200D02*
X168706800Y-41859200D01*
X161163000Y-37896800D02*
X165709600Y-40081200D01*
X157505400Y-36423600D02*
X161163000Y-37896800D01*
X154559000Y-35509200D02*
X157505400Y-36423600D01*
X151155400Y-34747200D02*
X154559000Y-35509200D01*
X147015200Y-34086800D02*
X151155400Y-34747200D01*
X143789400Y-33680400D02*
X147015200Y-34086800D01*
X140106400Y-33528000D02*
X143789400Y-33680400D01*
X136093200Y-33680400D02*
X140106400Y-33528000D01*
X131800600Y-34213800D02*
X136093200Y-33680400D01*
X128676400Y-34772600D02*
X131800600Y-34213800D01*
X126212600Y-35356800D02*
X128676400Y-34772600D01*
X122758200Y-36499800D02*
X126212600Y-35356800D01*
X118211600Y-38201600D02*
X122758200Y-36499800D01*
X114452400Y-39878000D02*
X118211600Y-38201600D01*
X111226600Y-41554400D02*
X114452400Y-39878000D01*
X107696000Y-43891200D02*
X111226600Y-41554400D01*
X104597200Y-46304200D02*
X107696000Y-43891200D01*
X192100200Y-70764400D02*
X190798767Y-67297829D01*
X193421000Y-75311000D02*
X192100200Y-70764400D01*
X194056000Y-78816200D02*
X193421000Y-75311000D01*
X194564000Y-83108800D02*
X194056000Y-78816200D01*
X194741800Y-86791800D02*
X194564000Y-83108800D01*
X194792600Y-89636600D02*
X194741800Y-86791800D01*
X194589400Y-93726000D02*
X194792600Y-89636600D01*
X194183000Y-97790000D02*
X194589400Y-93726000D01*
X193217800Y-102870000D02*
X194183000Y-97790000D01*
X192608200Y-105587800D02*
X193217800Y-102870000D01*
X191967167Y-107631971D02*
X192608200Y-105587800D01*
X88163400Y-70383400D02*
X89179400Y-67691000D01*
X87045800Y-74142600D02*
X88163400Y-70383400D01*
X86131400Y-78079600D02*
X87045800Y-74142600D01*
X85521800Y-81711800D02*
X86131400Y-78079600D01*
X85090000Y-87553800D02*
X85521800Y-81711800D01*
X85191600Y-92252800D02*
X85090000Y-87553800D01*
X85598000Y-96418400D02*
X85191600Y-92252800D01*
X86563200Y-101371400D02*
X85598000Y-96418400D01*
X87655400Y-105359200D02*
X86563200Y-101371400D01*
X88599495Y-108092601D02*
X87655400Y-105359200D01*
X77106511Y-124683607D02*
X78463335Y-122780895D01*
X74711341Y-128147507D02*
X75946560Y-126401534D01*
X84975150Y-117114584D02*
X85928239Y-116750900D01*
X100983520Y-129390378D02*
X101195139Y-128900094D01*
X80760835Y-120159117D02*
X82486338Y-118624762D01*
X98410739Y-135046212D02*
X99544420Y-133303786D01*
X87955696Y-115129755D02*
X88606506Y-114115825D01*
X81089951Y-144139838D02*
X83363358Y-144467098D01*
X99544420Y-133303786D02*
X100419824Y-131443301D01*
X100419824Y-131443301D02*
X100983520Y-129390378D01*
X75946560Y-126401534D02*
X77106511Y-124683607D01*
X82486338Y-118624762D02*
X83800693Y-117689322D01*
X89039172Y-112677448D02*
X89276417Y-110737587D01*
X73740284Y-137458067D02*
X73013480Y-134840238D01*
X88956087Y-108842612D02*
X88599495Y-108092601D01*
X89276417Y-110737587D02*
X89247163Y-109899897D01*
X88606506Y-114115825D02*
X89039172Y-112677448D01*
X85928239Y-116750900D02*
X87196255Y-115944155D01*
X90587229Y-141724117D02*
X94649236Y-138684903D01*
X79437052Y-121552364D02*
X80760835Y-120159117D01*
X97260216Y-136306333D02*
X98410739Y-135046212D01*
X78463335Y-122780895D02*
X79437052Y-121552364D01*
X87196255Y-115944155D02*
X87955696Y-115129755D01*
X86907439Y-144063765D02*
X90587229Y-141724117D01*
X83800693Y-117689322D02*
X84975150Y-117114584D01*
X89247163Y-109899897D02*
X88956087Y-108842612D01*
X73013480Y-134840238D02*
X73930385Y-129801369D01*
X73740284Y-137458067D02*
X81089951Y-144139838D01*
X73930385Y-129801369D02*
X74711341Y-128147507D01*
X94649236Y-138684903D02*
X97260216Y-136306333D01*
X83363358Y-144467098D02*
X86907439Y-144063765D01*
X192610965Y-114669126D02*
X191960155Y-113655196D01*
X199805827Y-119698487D02*
X198080324Y-118164133D01*
X182155922Y-134585583D02*
X181022242Y-132843156D01*
X179583141Y-128929749D02*
X179371523Y-128439465D01*
X195591512Y-116653955D02*
X194638424Y-116290271D01*
X205855321Y-127686878D02*
X204620102Y-125940906D01*
X203460151Y-124222977D02*
X202103327Y-122320266D01*
X181022242Y-132843156D02*
X180146839Y-130982672D01*
X199476711Y-143679210D02*
X197203305Y-144006468D01*
X201129609Y-121091736D02*
X199805827Y-119698487D01*
X183306446Y-135845704D02*
X182155922Y-134585583D01*
X202103327Y-122320266D02*
X201129609Y-121091736D01*
X206636278Y-129340740D02*
X205855321Y-127686878D01*
X193370406Y-115483526D02*
X192610965Y-114669126D01*
X193659222Y-143603136D02*
X189979433Y-141263487D01*
X196765969Y-117228693D02*
X195591512Y-116653955D01*
X207553183Y-134379610D02*
X206636278Y-129340740D01*
X197203305Y-144006468D02*
X193659222Y-143603136D01*
X191319498Y-109439269D02*
X191610574Y-108381983D01*
X180146839Y-130982672D02*
X179583141Y-128929749D01*
X204620102Y-125940906D02*
X203460151Y-124222977D01*
X198080324Y-118164133D02*
X196765969Y-117228693D01*
X191527490Y-112216820D02*
X191290245Y-110276958D01*
X206826378Y-136997439D02*
X207553183Y-134379610D01*
X191610574Y-108381983D02*
X191967167Y-107631971D01*
X206826378Y-136997439D02*
X199476711Y-143679210D01*
X191290245Y-110276958D02*
X191319498Y-109439269D01*
X191960155Y-113655196D02*
X191527490Y-112216820D01*
X194638424Y-116290271D02*
X193370406Y-115483526D01*
X189979433Y-141263487D02*
X185917425Y-138224274D01*
X185917425Y-138224274D02*
X183306446Y-135845704D01*
X202291751Y-50706823D02*
X200934927Y-52609534D01*
X204686921Y-47242922D02*
X203451702Y-48988894D01*
X194423112Y-58275845D02*
X193470024Y-58639529D01*
X176833567Y-47300626D02*
X176041328Y-47175798D01*
X178414741Y-46000051D02*
X178203123Y-46490335D01*
X177389368Y-47204970D02*
X176833567Y-47300626D01*
X176041328Y-47175798D02*
X175266496Y-46821623D01*
X177837424Y-46935169D02*
X177389368Y-47204970D01*
X198637427Y-55231313D02*
X196911924Y-56765667D01*
X180987522Y-40344217D02*
X179853842Y-42086644D01*
X191442565Y-60260674D02*
X190791755Y-61274604D01*
X198308311Y-31250590D02*
X196034905Y-30923332D01*
X179853842Y-42086644D02*
X178978439Y-43947128D01*
X178978439Y-43947128D02*
X178414741Y-46000051D01*
X203451702Y-48988894D02*
X202291751Y-50706823D01*
X196911924Y-56765667D02*
X195597569Y-57701107D01*
X190359090Y-62712980D02*
X190121845Y-64652842D01*
X205657978Y-37932361D02*
X206384783Y-40550190D01*
X190442174Y-66547817D02*
X190798767Y-67297829D01*
X190121845Y-64652842D02*
X190151098Y-65490531D01*
X190791755Y-61274604D02*
X190359090Y-62712980D01*
X193470024Y-58639529D02*
X192202006Y-59446274D01*
X175266496Y-46821623D02*
X174643971Y-46462130D01*
X188811033Y-33666313D02*
X184749025Y-36705526D01*
X199961209Y-53838064D02*
X198637427Y-55231313D01*
X182138046Y-39084096D02*
X180987522Y-40344217D01*
X200934927Y-52609534D02*
X199961209Y-53838064D01*
X192202006Y-59446274D02*
X191442565Y-60260674D01*
X192490822Y-31326664D02*
X188811033Y-33666313D01*
X195597569Y-57701107D02*
X194423112Y-58275845D01*
X190151098Y-65490531D02*
X190442174Y-66547817D01*
X206384783Y-40550190D02*
X205467878Y-45589060D01*
X205657978Y-37932361D02*
X198308311Y-31250590D01*
X178203123Y-46490335D02*
X177837424Y-46935169D01*
X205467878Y-45589060D02*
X204686921Y-47242922D01*
X184749025Y-36705526D02*
X182138046Y-39084096D01*
X196034905Y-30923332D02*
X192490822Y-31326664D01*
X89509600Y-66929000D02*
X89179400Y-67691000D01*
X89763600Y-65862200D02*
X89509600Y-66929000D01*
X89763600Y-65024000D02*
X89763600Y-65862200D01*
X89458800Y-63093600D02*
X89763600Y-65024000D01*
X88976200Y-61671200D02*
X89458800Y-63093600D01*
X88290400Y-60680600D02*
X88976200Y-61671200D01*
X87503000Y-59893200D02*
X88290400Y-60680600D01*
X86207600Y-59131200D02*
X87503000Y-59893200D01*
X85242400Y-58801000D02*
X86207600Y-59131200D01*
X84048600Y-58267600D02*
X85242400Y-58801000D01*
X82702400Y-57378600D02*
X84048600Y-58267600D01*
X80924400Y-55905400D02*
X82702400Y-57378600D01*
X79552800Y-54559200D02*
X80924400Y-55905400D01*
X78536800Y-53365400D02*
X79552800Y-54559200D01*
X77114400Y-51511200D02*
X78536800Y-53365400D01*
X75895200Y-49834800D02*
X77114400Y-51511200D01*
X74599800Y-48133000D02*
X75895200Y-49834800D01*
X73761600Y-46507400D02*
X74599800Y-48133000D01*
X72669400Y-41503600D02*
X73761600Y-46507400D01*
X73304400Y-38862000D02*
X72669400Y-41503600D01*
X103987600Y-46685200D02*
X104597200Y-46304200D01*
X103225600Y-47066200D02*
X103987600Y-46685200D01*
X102438200Y-47218600D02*
X103225600Y-47066200D01*
X101879400Y-47142400D02*
X102438200Y-47218600D01*
X101422200Y-46888400D02*
X101879400Y-47142400D01*
X101041200Y-46456600D02*
X101422200Y-46888400D01*
X100812600Y-45974000D02*
X101041200Y-46456600D01*
X100177600Y-43942000D02*
X100812600Y-45974000D01*
X99237800Y-42113200D02*
X100177600Y-43942000D01*
X98044000Y-40411400D02*
X99237800Y-42113200D01*
X96850200Y-39192200D02*
X98044000Y-40411400D01*
X94157800Y-36906200D02*
X96850200Y-39192200D01*
X89992200Y-34010600D02*
X94157800Y-36906200D01*
X86233000Y-31800800D02*
X89992200Y-34010600D01*
X82677000Y-31521400D02*
X86233000Y-31800800D01*
X80416400Y-31927800D02*
X82677000Y-31521400D01*
X73304400Y-38862000D02*
X80416400Y-31927800D01*
M02*
