G04 #@! TF.GenerationSoftware,KiCad,Pcbnew,(5.1.9)-1*
G04 #@! TF.CreationDate,2022-06-27T18:25:20-05:00*
G04 #@! TF.ProjectId,hom3c0ming_corsage,686f6d33-6330-46d6-996e-675f636f7273,4*
G04 #@! TF.SameCoordinates,Original*
G04 #@! TF.FileFunction,Soldermask,Top*
G04 #@! TF.FilePolarity,Negative*
%FSLAX46Y46*%
G04 Gerber Fmt 4.6, Leading zero omitted, Abs format (unit mm)*
G04 Created by KiCad (PCBNEW (5.1.9)-1) date 2022-06-27 18:25:20*
%MOMM*%
%LPD*%
G01*
G04 APERTURE LIST*
%ADD10C,1.800000*%
%ADD11C,0.100000*%
%ADD12C,2.200000*%
%ADD13C,3.000000*%
%ADD14C,2.000000*%
%ADD15R,2.000000X2.000000*%
%ADD16C,1.600000*%
%ADD17O,1.700000X1.700000*%
%ADD18R,1.700000X1.700000*%
%ADD19C,1.400000*%
G04 APERTURE END LIST*
D10*
X103464902Y-58333098D03*
X101668851Y-60129149D03*
D11*
G36*
X99872800Y-63197992D02*
G01*
X98600008Y-61925200D01*
X99872800Y-60652408D01*
X101145592Y-61925200D01*
X99872800Y-63197992D01*
G37*
D10*
X179588702Y-61859702D03*
X177792651Y-60063651D03*
D11*
G36*
X174723808Y-58267600D02*
G01*
X175996600Y-56994808D01*
X177269392Y-58267600D01*
X175996600Y-59540392D01*
X174723808Y-58267600D01*
G37*
D10*
X176897498Y-117028502D03*
X178693549Y-115232451D03*
D11*
G36*
X180489600Y-112163608D02*
G01*
X181762392Y-113436400D01*
X180489600Y-114709192D01*
X179216808Y-113436400D01*
X180489600Y-112163608D01*
G37*
D10*
X99989098Y-113425698D03*
X101785149Y-115221749D03*
D11*
G36*
X104853992Y-117017800D02*
G01*
X103581200Y-118290592D01*
X102308408Y-117017800D01*
X103581200Y-115745008D01*
X104853992Y-117017800D01*
G37*
G36*
X191547933Y-48325725D02*
G01*
X192820725Y-47052933D01*
X193577329Y-47809537D01*
X192304537Y-49082329D01*
X191547933Y-48325725D01*
G37*
G36*
G01*
X190848604Y-46869792D02*
X191364792Y-46353604D01*
G75*
G02*
X192121396Y-46353604I378302J-378302D01*
G01*
X192121396Y-46353604D01*
G75*
G02*
X192121396Y-47110208I-378302J-378302D01*
G01*
X191605208Y-47626396D01*
G75*
G02*
X190848604Y-47626396I-378302J378302D01*
G01*
X190848604Y-47626396D01*
G75*
G02*
X190848604Y-46869792I378302J378302D01*
G01*
G37*
G36*
G01*
X189770973Y-45792161D02*
X190287161Y-45275973D01*
G75*
G02*
X191043765Y-45275973I378302J-378302D01*
G01*
X191043765Y-45275973D01*
G75*
G02*
X191043765Y-46032577I-378302J-378302D01*
G01*
X190527577Y-46548765D01*
G75*
G02*
X189770973Y-46548765I-378302J378302D01*
G01*
X189770973Y-46548765D01*
G75*
G02*
X189770973Y-45792161I378302J378302D01*
G01*
G37*
G36*
G01*
X188693342Y-44714530D02*
X189209530Y-44198342D01*
G75*
G02*
X189966134Y-44198342I378302J-378302D01*
G01*
X189966134Y-44198342D01*
G75*
G02*
X189966134Y-44954946I-378302J-378302D01*
G01*
X189449946Y-45471134D01*
G75*
G02*
X188693342Y-45471134I-378302J378302D01*
G01*
X188693342Y-45471134D01*
G75*
G02*
X188693342Y-44714530I378302J378302D01*
G01*
G37*
G36*
X90263579Y-46184213D02*
G01*
X88990787Y-44911421D01*
X89747391Y-44154817D01*
X91020183Y-45427609D01*
X90263579Y-46184213D01*
G37*
G36*
G01*
X88807646Y-46883542D02*
X88291458Y-46367354D01*
G75*
G02*
X88291458Y-45610750I378302J378302D01*
G01*
X88291458Y-45610750D01*
G75*
G02*
X89048062Y-45610750I378302J-378302D01*
G01*
X89564250Y-46126938D01*
G75*
G02*
X89564250Y-46883542I-378302J-378302D01*
G01*
X89564250Y-46883542D01*
G75*
G02*
X88807646Y-46883542I-378302J378302D01*
G01*
G37*
G36*
G01*
X87730015Y-47961173D02*
X87213827Y-47444985D01*
G75*
G02*
X87213827Y-46688381I378302J378302D01*
G01*
X87213827Y-46688381D01*
G75*
G02*
X87970431Y-46688381I378302J-378302D01*
G01*
X88486619Y-47204569D01*
G75*
G02*
X88486619Y-47961173I-378302J-378302D01*
G01*
X88486619Y-47961173D01*
G75*
G02*
X87730015Y-47961173I-378302J378302D01*
G01*
G37*
G36*
G01*
X86652384Y-49038804D02*
X86136196Y-48522616D01*
G75*
G02*
X86136196Y-47766012I378302J378302D01*
G01*
X86136196Y-47766012D01*
G75*
G02*
X86892800Y-47766012I378302J-378302D01*
G01*
X87408988Y-48282200D01*
G75*
G02*
X87408988Y-49038804I-378302J-378302D01*
G01*
X87408988Y-49038804D01*
G75*
G02*
X86652384Y-49038804I-378302J378302D01*
G01*
G37*
G36*
X189612421Y-129482187D02*
G01*
X190885213Y-130754979D01*
X190128609Y-131511583D01*
X188855817Y-130238791D01*
X189612421Y-129482187D01*
G37*
G36*
G01*
X191068354Y-128782858D02*
X191584542Y-129299046D01*
G75*
G02*
X191584542Y-130055650I-378302J-378302D01*
G01*
X191584542Y-130055650D01*
G75*
G02*
X190827938Y-130055650I-378302J378302D01*
G01*
X190311750Y-129539462D01*
G75*
G02*
X190311750Y-128782858I378302J378302D01*
G01*
X190311750Y-128782858D01*
G75*
G02*
X191068354Y-128782858I378302J-378302D01*
G01*
G37*
G36*
G01*
X192145985Y-127705227D02*
X192662173Y-128221415D01*
G75*
G02*
X192662173Y-128978019I-378302J-378302D01*
G01*
X192662173Y-128978019D01*
G75*
G02*
X191905569Y-128978019I-378302J378302D01*
G01*
X191389381Y-128461831D01*
G75*
G02*
X191389381Y-127705227I378302J378302D01*
G01*
X191389381Y-127705227D01*
G75*
G02*
X192145985Y-127705227I378302J-378302D01*
G01*
G37*
G36*
G01*
X193223616Y-126627596D02*
X193739804Y-127143784D01*
G75*
G02*
X193739804Y-127900388I-378302J-378302D01*
G01*
X193739804Y-127900388D01*
G75*
G02*
X192983200Y-127900388I-378302J378302D01*
G01*
X192467012Y-127384200D01*
G75*
G02*
X192467012Y-126627596I378302J378302D01*
G01*
X192467012Y-126627596D01*
G75*
G02*
X193223616Y-126627596I378302J-378302D01*
G01*
G37*
G36*
X87276836Y-126440844D02*
G01*
X86004044Y-127713636D01*
X85247440Y-126957032D01*
X86520232Y-125684240D01*
X87276836Y-126440844D01*
G37*
G36*
G01*
X87976165Y-127896777D02*
X87459977Y-128412965D01*
G75*
G02*
X86703373Y-128412965I-378302J378302D01*
G01*
X86703373Y-128412965D01*
G75*
G02*
X86703373Y-127656361I378302J378302D01*
G01*
X87219561Y-127140173D01*
G75*
G02*
X87976165Y-127140173I378302J-378302D01*
G01*
X87976165Y-127140173D01*
G75*
G02*
X87976165Y-127896777I-378302J-378302D01*
G01*
G37*
G36*
G01*
X89053796Y-128974408D02*
X88537608Y-129490596D01*
G75*
G02*
X87781004Y-129490596I-378302J378302D01*
G01*
X87781004Y-129490596D01*
G75*
G02*
X87781004Y-128733992I378302J378302D01*
G01*
X88297192Y-128217804D01*
G75*
G02*
X89053796Y-128217804I378302J-378302D01*
G01*
X89053796Y-128217804D01*
G75*
G02*
X89053796Y-128974408I-378302J-378302D01*
G01*
G37*
G36*
G01*
X90131427Y-130052039D02*
X89615239Y-130568227D01*
G75*
G02*
X88858635Y-130568227I-378302J378302D01*
G01*
X88858635Y-130568227D01*
G75*
G02*
X88858635Y-129811623I378302J378302D01*
G01*
X89374823Y-129295435D01*
G75*
G02*
X90131427Y-129295435I378302J-378302D01*
G01*
X90131427Y-129295435D01*
G75*
G02*
X90131427Y-130052039I-378302J-378302D01*
G01*
G37*
D12*
X96202796Y-120847204D03*
X81000000Y-136050000D03*
X184347204Y-120797204D03*
X199550000Y-136000000D03*
X183197204Y-54502796D03*
X198400000Y-39300000D03*
X96102796Y-54602796D03*
X80900000Y-39400000D03*
D13*
X139855480Y-56022240D03*
D14*
X162205480Y-56022240D03*
D15*
X117505480Y-56022240D03*
D16*
X90735233Y-50789767D03*
X92503000Y-49022000D03*
X188564000Y-50419000D03*
X186796233Y-48651233D03*
X189191567Y-124775033D03*
X187423800Y-126542800D03*
X90119200Y-124155200D03*
X91886967Y-125922967D03*
X139954000Y-135636000D03*
X142454000Y-135636000D03*
X137454000Y-135636000D03*
D14*
X116300000Y-108050000D03*
D15*
X116300000Y-120750000D03*
D13*
X139925000Y-114400000D03*
D17*
X115570000Y-90890000D03*
X118110000Y-90890000D03*
D18*
X120650000Y-90890000D03*
D17*
X123190000Y-90890000D03*
X125730000Y-90890000D03*
X128270000Y-90890000D03*
X130810000Y-90890000D03*
D18*
X133350000Y-90890000D03*
D17*
X135890000Y-90890000D03*
X138430000Y-90890000D03*
X140970000Y-90890000D03*
X143510000Y-90890000D03*
D18*
X146050000Y-90890000D03*
D17*
X148590000Y-90890000D03*
X151130000Y-90890000D03*
X153670000Y-90890000D03*
X156210000Y-90890000D03*
D18*
X158750000Y-90890000D03*
D17*
X161290000Y-90890000D03*
X163830000Y-90890000D03*
X163830000Y-73110000D03*
X161290000Y-73110000D03*
D18*
X158750000Y-73110000D03*
D17*
X156210000Y-73110000D03*
X153670000Y-73110000D03*
X151130000Y-73110000D03*
X148590000Y-73110000D03*
D18*
X146050000Y-73110000D03*
D17*
X143510000Y-73110000D03*
X140970000Y-73110000D03*
X138430000Y-73110000D03*
X135890000Y-73110000D03*
D18*
X133350000Y-73110000D03*
D17*
X130810000Y-73110000D03*
X128270000Y-73110000D03*
X125730000Y-73110000D03*
X123190000Y-73110000D03*
D18*
X120650000Y-73110000D03*
D17*
X118110000Y-73110000D03*
X115570000Y-73110000D03*
X163600000Y-84540000D03*
D18*
X163600000Y-82000000D03*
D17*
X163600000Y-79460000D03*
D19*
X114300000Y-129540000D03*
X121920000Y-129540000D03*
X102108000Y-71374000D03*
X94488000Y-71374000D03*
X110280200Y-64770000D03*
X104892046Y-70158154D03*
X169157846Y-64842846D03*
X174546000Y-70231000D03*
X185061600Y-71399400D03*
X177441600Y-71399400D03*
X185969400Y-103962200D03*
X178349400Y-103962200D03*
X170069000Y-110540800D03*
X175457154Y-105152646D03*
X104876600Y-105181400D03*
X110264754Y-110569554D03*
X94361000Y-103987600D03*
X101981000Y-103987600D03*
X87811154Y-52886154D03*
X82423000Y-47498000D03*
X190246000Y-40386000D03*
X184857846Y-45774154D03*
X192223846Y-122881846D03*
X197612000Y-128270000D03*
X88519000Y-134366000D03*
X93907154Y-128977846D03*
M02*
