G04 #@! TF.GenerationSoftware,KiCad,Pcbnew,(5.1.9)-1*
G04 #@! TF.CreationDate,2022-07-07T07:21:18-05:00*
G04 #@! TF.ProjectId,hom3c0ming_boutonniere,686f6d33-6330-46d6-996e-675f626f7574,3*
G04 #@! TF.SameCoordinates,Original*
G04 #@! TF.FileFunction,Copper,L2,Bot*
G04 #@! TF.FilePolarity,Positive*
%FSLAX46Y46*%
G04 Gerber Fmt 4.6, Leading zero omitted, Abs format (unit mm)*
G04 Created by KiCad (PCBNEW (5.1.9)-1) date 2022-07-07 07:21:18*
%MOMM*%
%LPD*%
G01*
G04 APERTURE LIST*
G04 #@! TA.AperFunction,ComponentPad*
%ADD10R,1.070000X1.800000*%
G04 #@! TD*
G04 #@! TA.AperFunction,ComponentPad*
%ADD11O,1.070000X1.800000*%
G04 #@! TD*
G04 #@! TA.AperFunction,ComponentPad*
%ADD12R,1.700000X1.700000*%
G04 #@! TD*
G04 #@! TA.AperFunction,ComponentPad*
%ADD13C,1.700000*%
G04 #@! TD*
G04 #@! TA.AperFunction,ComponentPad*
%ADD14R,1.800000X1.800000*%
G04 #@! TD*
G04 #@! TA.AperFunction,ComponentPad*
%ADD15C,1.800000*%
G04 #@! TD*
G04 #@! TA.AperFunction,ComponentPad*
%ADD16C,2.500000*%
G04 #@! TD*
G04 #@! TA.AperFunction,ComponentPad*
%ADD17C,1.400000*%
G04 #@! TD*
G04 #@! TA.AperFunction,ComponentPad*
%ADD18C,1.600000*%
G04 #@! TD*
G04 #@! TA.AperFunction,ComponentPad*
%ADD19C,1.727200*%
G04 #@! TD*
G04 #@! TA.AperFunction,ComponentPad*
%ADD20O,1.727200X1.727200*%
G04 #@! TD*
G04 #@! TA.AperFunction,ComponentPad*
%ADD21R,1.727200X1.727200*%
G04 #@! TD*
G04 #@! TA.AperFunction,Conductor*
%ADD22C,0.400000*%
G04 #@! TD*
G04 APERTURE END LIST*
D10*
X121000240Y-57950100D03*
D11*
X122470240Y-57950100D03*
X123940240Y-57950100D03*
X125410240Y-57950100D03*
D12*
X112049260Y-103000000D03*
D13*
X132049260Y-103000000D03*
D14*
X121894600Y-75542140D03*
D15*
X124434600Y-75542140D03*
D16*
X115084220Y-89540000D03*
X112584220Y-84500000D03*
X117584220Y-84500000D03*
X131225920Y-89540000D03*
X128725920Y-84500000D03*
X133725920Y-84500000D03*
X123158880Y-89540000D03*
X120658880Y-84500000D03*
X125658880Y-84500000D03*
D17*
X116883180Y-55153560D03*
X116883180Y-62773560D03*
X129590800Y-62831980D03*
X129590800Y-55211980D03*
X127043180Y-64836040D03*
X119423180Y-64836040D03*
X127017780Y-72344280D03*
X119397780Y-72344280D03*
D18*
X113100000Y-76600000D03*
X113100000Y-74100000D03*
X113100000Y-79100000D03*
D19*
X125710000Y-105830000D03*
X125710000Y-108370000D03*
D20*
X123170000Y-105830000D03*
X123170000Y-108370000D03*
X120630000Y-105830000D03*
D21*
X120630000Y-108370000D03*
D22*
X132049260Y-94549260D02*
X132049260Y-103000000D01*
X117100000Y-77000000D02*
X123200000Y-83100000D01*
X117100000Y-69500000D02*
X117100000Y-77000000D01*
X122570240Y-64029760D02*
X117100000Y-69500000D01*
X123200000Y-85700000D02*
X132049260Y-94549260D01*
X123200000Y-83100000D02*
X123200000Y-85700000D01*
X122570240Y-57950100D02*
X122570240Y-64029760D01*
X123200000Y-83100000D02*
X123200000Y-79900000D01*
X121894600Y-78594600D02*
X121894600Y-75542140D01*
X123200000Y-79900000D02*
X121894600Y-78594600D01*
X120630000Y-108370000D02*
X120630000Y-110820000D01*
X120630000Y-110820000D02*
X121130000Y-111320000D01*
X121130000Y-111320000D02*
X126910000Y-111320000D01*
X132049260Y-106180740D02*
X132049260Y-103000000D01*
X126910000Y-111320000D02*
X132049260Y-106180740D01*
M02*
