M48
INCH,TZ
T1C0.0157
T2C0.0276
T3C0.0315
T4C0.0354
T5C0.0394
T6C0.0402
%
G90
G05
T1
X59500Y-39000
X64000Y-43500
T2
X32450Y-18700
X34571Y-20821
X34850Y-52900
X36971Y-50779
X37150Y-40940
X37200Y-28100
X40150Y-40940
X40200Y-28100
X41290Y-41410
X41296Y-27621
X43411Y-43531
X43417Y-25500
X45000Y-51000
X48000Y-51000
X66598Y-25529
X66956Y-43520
X68719Y-27650
X69078Y-41399
X69859Y-28110
X70216Y-40930
X72779Y-18021
X72859Y-28110
X73216Y-40930
X74900Y-15900
X75679Y-48379
X77800Y-50500
T3
X35480Y-48880
X35723Y-19996
X36176Y-49576
X36419Y-19300
X73542Y-19154
X73789Y-49820
X74238Y-19850
X74485Y-49124
T4
X33961Y-49881
X34162Y-19056
X34386Y-50306
X34587Y-18632
X34810Y-50730
X35011Y-18208
X35234Y-51154
X35435Y-17783
X39320Y-24380
X39366Y-44656
X40027Y-23673
X40073Y-45363
X40734Y-22966
X40780Y-46070
X69290Y-22940
X69645Y-46074
X69997Y-23647
X70352Y-45367
X70704Y-24354
X71059Y-44660
X74539Y-17651
X74752Y-51377
X74964Y-18076
X75176Y-50952
X75388Y-18500
X75601Y-50528
X75812Y-18924
X76025Y-50104
T5
X54116Y-53400
X55100Y-53400
X56084Y-53400
T6
X45500Y-28783
X45500Y-35783
X45787Y-42539
X45787Y-47539
X46262Y-22056
X46500Y-28783
X46500Y-35783
X47500Y-28783
X47500Y-35783
X48500Y-28783
X48500Y-35783
X49500Y-28783
X49500Y-35783
X50500Y-28783
X50500Y-35783
X51500Y-28783
X51500Y-35783
X52500Y-28783
X52500Y-35783
X53500Y-28783
X53500Y-35783
X54500Y-28783
X54500Y-35783
X55500Y-28783
X55500Y-35783
X56500Y-28783
X56500Y-35783
X57500Y-28783
X57500Y-35783
X58500Y-28783
X58500Y-35783
X59500Y-28783
X59500Y-35783
X60500Y-28783
X60500Y-35783
X61500Y-28783
X61500Y-35783
X62500Y-28783
X62500Y-35783
X63500Y-28783
X63500Y-35783
X63860Y-22056
X64409Y-31283
X64409Y-32283
X64409Y-33283
X64500Y-28783
X64500Y-35783
T0
M30
