G04 #@! TF.GenerationSoftware,KiCad,Pcbnew,(5.1.9)-1*
G04 #@! TF.CreationDate,2022-06-12T00:25:53-05:00*
G04 #@! TF.ProjectId,hom3c0ming_corsage,686f6d33-6330-46d6-996e-675f636f7273,3*
G04 #@! TF.SameCoordinates,Original*
G04 #@! TF.FileFunction,Copper,L1,Top*
G04 #@! TF.FilePolarity,Positive*
%FSLAX46Y46*%
G04 Gerber Fmt 4.6, Leading zero omitted, Abs format (unit mm)*
G04 Created by KiCad (PCBNEW (5.1.9)-1) date 2022-06-12 00:25:53*
%MOMM*%
%LPD*%
G01*
G04 APERTURE LIST*
G04 #@! TA.AperFunction,ComponentPad*
%ADD10C,2.000000*%
G04 #@! TD*
G04 #@! TA.AperFunction,ComponentPad*
%ADD11R,2.000000X2.000000*%
G04 #@! TD*
G04 #@! TA.AperFunction,ComponentPad*
%ADD12C,1.600000*%
G04 #@! TD*
G04 #@! TA.AperFunction,ComponentPad*
%ADD13C,1.800000*%
G04 #@! TD*
G04 #@! TA.AperFunction,ComponentPad*
%ADD14C,0.100000*%
G04 #@! TD*
G04 #@! TA.AperFunction,ComponentPad*
%ADD15O,1.700000X1.700000*%
G04 #@! TD*
G04 #@! TA.AperFunction,ComponentPad*
%ADD16R,1.700000X1.700000*%
G04 #@! TD*
G04 #@! TA.AperFunction,ComponentPad*
%ADD17C,1.400000*%
G04 #@! TD*
G04 #@! TA.AperFunction,ViaPad*
%ADD18C,0.800000*%
G04 #@! TD*
G04 #@! TA.AperFunction,Conductor*
%ADD19C,0.300000*%
G04 #@! TD*
G04 APERTURE END LIST*
D10*
X162205480Y-56022240D03*
D11*
X117505480Y-56022240D03*
D12*
X90735233Y-50789767D03*
X92503000Y-49022000D03*
X188564000Y-50419000D03*
X186796233Y-48651233D03*
X189191567Y-124775033D03*
X187423800Y-126542800D03*
X90119200Y-124155200D03*
X91886967Y-125922967D03*
D13*
X103464902Y-58333098D03*
X101668851Y-60129149D03*
G04 #@! TA.AperFunction,ComponentPad*
D14*
G36*
X99872800Y-63197992D02*
G01*
X98600008Y-61925200D01*
X99872800Y-60652408D01*
X101145592Y-61925200D01*
X99872800Y-63197992D01*
G37*
G04 #@! TD.AperFunction*
D13*
X179588702Y-61859702D03*
X177792651Y-60063651D03*
G04 #@! TA.AperFunction,ComponentPad*
D14*
G36*
X174723808Y-58267600D02*
G01*
X175996600Y-56994808D01*
X177269392Y-58267600D01*
X175996600Y-59540392D01*
X174723808Y-58267600D01*
G37*
G04 #@! TD.AperFunction*
G04 #@! TA.AperFunction,ComponentPad*
G36*
X180489600Y-112163608D02*
G01*
X181762392Y-113436400D01*
X180489600Y-114709192D01*
X179216808Y-113436400D01*
X180489600Y-112163608D01*
G37*
G04 #@! TD.AperFunction*
D13*
X178693549Y-115232451D03*
X176897498Y-117028502D03*
G04 #@! TA.AperFunction,ComponentPad*
D14*
G36*
X104853992Y-117017800D02*
G01*
X103581200Y-118290592D01*
X102308408Y-117017800D01*
X103581200Y-115745008D01*
X104853992Y-117017800D01*
G37*
G04 #@! TD.AperFunction*
D13*
X101785149Y-115221749D03*
X99989098Y-113425698D03*
G04 #@! TA.AperFunction,ComponentPad*
D14*
G36*
X90263579Y-46184213D02*
G01*
X88990787Y-44911421D01*
X89747391Y-44154817D01*
X91020183Y-45427609D01*
X90263579Y-46184213D01*
G37*
G04 #@! TD.AperFunction*
G04 #@! TA.AperFunction,ComponentPad*
G36*
G01*
X88807646Y-46883542D02*
X88291458Y-46367354D01*
G75*
G02*
X88291458Y-45610750I378302J378302D01*
G01*
X88291458Y-45610750D01*
G75*
G02*
X89048062Y-45610750I378302J-378302D01*
G01*
X89564250Y-46126938D01*
G75*
G02*
X89564250Y-46883542I-378302J-378302D01*
G01*
X89564250Y-46883542D01*
G75*
G02*
X88807646Y-46883542I-378302J378302D01*
G01*
G37*
G04 #@! TD.AperFunction*
G04 #@! TA.AperFunction,ComponentPad*
G36*
G01*
X87730015Y-47961173D02*
X87213827Y-47444985D01*
G75*
G02*
X87213827Y-46688381I378302J378302D01*
G01*
X87213827Y-46688381D01*
G75*
G02*
X87970431Y-46688381I378302J-378302D01*
G01*
X88486619Y-47204569D01*
G75*
G02*
X88486619Y-47961173I-378302J-378302D01*
G01*
X88486619Y-47961173D01*
G75*
G02*
X87730015Y-47961173I-378302J378302D01*
G01*
G37*
G04 #@! TD.AperFunction*
G04 #@! TA.AperFunction,ComponentPad*
G36*
G01*
X86652384Y-49038804D02*
X86136196Y-48522616D01*
G75*
G02*
X86136196Y-47766012I378302J378302D01*
G01*
X86136196Y-47766012D01*
G75*
G02*
X86892800Y-47766012I378302J-378302D01*
G01*
X87408988Y-48282200D01*
G75*
G02*
X87408988Y-49038804I-378302J-378302D01*
G01*
X87408988Y-49038804D01*
G75*
G02*
X86652384Y-49038804I-378302J378302D01*
G01*
G37*
G04 #@! TD.AperFunction*
G04 #@! TA.AperFunction,ComponentPad*
G36*
X191547933Y-48325725D02*
G01*
X192820725Y-47052933D01*
X193577329Y-47809537D01*
X192304537Y-49082329D01*
X191547933Y-48325725D01*
G37*
G04 #@! TD.AperFunction*
G04 #@! TA.AperFunction,ComponentPad*
G36*
G01*
X190848604Y-46869792D02*
X191364792Y-46353604D01*
G75*
G02*
X192121396Y-46353604I378302J-378302D01*
G01*
X192121396Y-46353604D01*
G75*
G02*
X192121396Y-47110208I-378302J-378302D01*
G01*
X191605208Y-47626396D01*
G75*
G02*
X190848604Y-47626396I-378302J378302D01*
G01*
X190848604Y-47626396D01*
G75*
G02*
X190848604Y-46869792I378302J378302D01*
G01*
G37*
G04 #@! TD.AperFunction*
G04 #@! TA.AperFunction,ComponentPad*
G36*
G01*
X189770973Y-45792161D02*
X190287161Y-45275973D01*
G75*
G02*
X191043765Y-45275973I378302J-378302D01*
G01*
X191043765Y-45275973D01*
G75*
G02*
X191043765Y-46032577I-378302J-378302D01*
G01*
X190527577Y-46548765D01*
G75*
G02*
X189770973Y-46548765I-378302J378302D01*
G01*
X189770973Y-46548765D01*
G75*
G02*
X189770973Y-45792161I378302J378302D01*
G01*
G37*
G04 #@! TD.AperFunction*
G04 #@! TA.AperFunction,ComponentPad*
G36*
G01*
X188693342Y-44714530D02*
X189209530Y-44198342D01*
G75*
G02*
X189966134Y-44198342I378302J-378302D01*
G01*
X189966134Y-44198342D01*
G75*
G02*
X189966134Y-44954946I-378302J-378302D01*
G01*
X189449946Y-45471134D01*
G75*
G02*
X188693342Y-45471134I-378302J378302D01*
G01*
X188693342Y-45471134D01*
G75*
G02*
X188693342Y-44714530I378302J378302D01*
G01*
G37*
G04 #@! TD.AperFunction*
G04 #@! TA.AperFunction,ComponentPad*
G36*
G01*
X193223616Y-126627596D02*
X193739804Y-127143784D01*
G75*
G02*
X193739804Y-127900388I-378302J-378302D01*
G01*
X193739804Y-127900388D01*
G75*
G02*
X192983200Y-127900388I-378302J378302D01*
G01*
X192467012Y-127384200D01*
G75*
G02*
X192467012Y-126627596I378302J378302D01*
G01*
X192467012Y-126627596D01*
G75*
G02*
X193223616Y-126627596I378302J-378302D01*
G01*
G37*
G04 #@! TD.AperFunction*
G04 #@! TA.AperFunction,ComponentPad*
G36*
G01*
X192145985Y-127705227D02*
X192662173Y-128221415D01*
G75*
G02*
X192662173Y-128978019I-378302J-378302D01*
G01*
X192662173Y-128978019D01*
G75*
G02*
X191905569Y-128978019I-378302J378302D01*
G01*
X191389381Y-128461831D01*
G75*
G02*
X191389381Y-127705227I378302J378302D01*
G01*
X191389381Y-127705227D01*
G75*
G02*
X192145985Y-127705227I378302J-378302D01*
G01*
G37*
G04 #@! TD.AperFunction*
G04 #@! TA.AperFunction,ComponentPad*
G36*
G01*
X191068354Y-128782858D02*
X191584542Y-129299046D01*
G75*
G02*
X191584542Y-130055650I-378302J-378302D01*
G01*
X191584542Y-130055650D01*
G75*
G02*
X190827938Y-130055650I-378302J378302D01*
G01*
X190311750Y-129539462D01*
G75*
G02*
X190311750Y-128782858I378302J378302D01*
G01*
X190311750Y-128782858D01*
G75*
G02*
X191068354Y-128782858I378302J-378302D01*
G01*
G37*
G04 #@! TD.AperFunction*
G04 #@! TA.AperFunction,ComponentPad*
G36*
X189612421Y-129482187D02*
G01*
X190885213Y-130754979D01*
X190128609Y-131511583D01*
X188855817Y-130238791D01*
X189612421Y-129482187D01*
G37*
G04 #@! TD.AperFunction*
G04 #@! TA.AperFunction,ComponentPad*
G36*
G01*
X90131427Y-130052039D02*
X89615239Y-130568227D01*
G75*
G02*
X88858635Y-130568227I-378302J378302D01*
G01*
X88858635Y-130568227D01*
G75*
G02*
X88858635Y-129811623I378302J378302D01*
G01*
X89374823Y-129295435D01*
G75*
G02*
X90131427Y-129295435I378302J-378302D01*
G01*
X90131427Y-129295435D01*
G75*
G02*
X90131427Y-130052039I-378302J-378302D01*
G01*
G37*
G04 #@! TD.AperFunction*
G04 #@! TA.AperFunction,ComponentPad*
G36*
G01*
X89053796Y-128974408D02*
X88537608Y-129490596D01*
G75*
G02*
X87781004Y-129490596I-378302J378302D01*
G01*
X87781004Y-129490596D01*
G75*
G02*
X87781004Y-128733992I378302J378302D01*
G01*
X88297192Y-128217804D01*
G75*
G02*
X89053796Y-128217804I378302J-378302D01*
G01*
X89053796Y-128217804D01*
G75*
G02*
X89053796Y-128974408I-378302J-378302D01*
G01*
G37*
G04 #@! TD.AperFunction*
G04 #@! TA.AperFunction,ComponentPad*
G36*
G01*
X87976165Y-127896777D02*
X87459977Y-128412965D01*
G75*
G02*
X86703373Y-128412965I-378302J378302D01*
G01*
X86703373Y-128412965D01*
G75*
G02*
X86703373Y-127656361I378302J378302D01*
G01*
X87219561Y-127140173D01*
G75*
G02*
X87976165Y-127140173I378302J-378302D01*
G01*
X87976165Y-127140173D01*
G75*
G02*
X87976165Y-127896777I-378302J-378302D01*
G01*
G37*
G04 #@! TD.AperFunction*
G04 #@! TA.AperFunction,ComponentPad*
G36*
X87276836Y-126440844D02*
G01*
X86004044Y-127713636D01*
X85247440Y-126957032D01*
X86520232Y-125684240D01*
X87276836Y-126440844D01*
G37*
G04 #@! TD.AperFunction*
D12*
X139954000Y-135636000D03*
X142454000Y-135636000D03*
X137454000Y-135636000D03*
D10*
X116300000Y-108050000D03*
D11*
X116300000Y-120750000D03*
D15*
X115570000Y-90890000D03*
X118110000Y-90890000D03*
D16*
X120650000Y-90890000D03*
D15*
X123190000Y-90890000D03*
X125730000Y-90890000D03*
X128270000Y-90890000D03*
X130810000Y-90890000D03*
D16*
X133350000Y-90890000D03*
D15*
X135890000Y-90890000D03*
X138430000Y-90890000D03*
X140970000Y-90890000D03*
X143510000Y-90890000D03*
D16*
X146050000Y-90890000D03*
D15*
X148590000Y-90890000D03*
X151130000Y-90890000D03*
X153670000Y-90890000D03*
X156210000Y-90890000D03*
D16*
X158750000Y-90890000D03*
D15*
X161290000Y-90890000D03*
X163830000Y-90890000D03*
X163830000Y-73110000D03*
X161290000Y-73110000D03*
D16*
X158750000Y-73110000D03*
D15*
X156210000Y-73110000D03*
X153670000Y-73110000D03*
X151130000Y-73110000D03*
X148590000Y-73110000D03*
D16*
X146050000Y-73110000D03*
D15*
X143510000Y-73110000D03*
X140970000Y-73110000D03*
X138430000Y-73110000D03*
X135890000Y-73110000D03*
D16*
X133350000Y-73110000D03*
D15*
X130810000Y-73110000D03*
X128270000Y-73110000D03*
X125730000Y-73110000D03*
X123190000Y-73110000D03*
D16*
X120650000Y-73110000D03*
D15*
X118110000Y-73110000D03*
X115570000Y-73110000D03*
X163600000Y-84540000D03*
D16*
X163600000Y-82000000D03*
D15*
X163600000Y-79460000D03*
D17*
X114300000Y-129540000D03*
X121920000Y-129540000D03*
X102108000Y-71374000D03*
X94488000Y-71374000D03*
X110280200Y-64770000D03*
X104892046Y-70158154D03*
X169157846Y-64842846D03*
X174546000Y-70231000D03*
X185061600Y-71399400D03*
X177441600Y-71399400D03*
X185969400Y-103962200D03*
X178349400Y-103962200D03*
X170069000Y-110540800D03*
X175457154Y-105152646D03*
X104876600Y-105181400D03*
X110264754Y-110569554D03*
X94361000Y-103987600D03*
X101981000Y-103987600D03*
X87811154Y-52886154D03*
X82423000Y-47498000D03*
X190246000Y-40386000D03*
X184857846Y-45774154D03*
X192223846Y-122881846D03*
X197612000Y-128270000D03*
X88519000Y-134366000D03*
X93907154Y-128977846D03*
D18*
X151130000Y-99060000D03*
X162560000Y-110490000D03*
D19*
X103843298Y-58333098D02*
X103464902Y-58333098D01*
X110280200Y-64770000D02*
X103843298Y-58333098D01*
X94488000Y-71374000D02*
X94488000Y-69596000D01*
X94488000Y-69596000D02*
X96520000Y-67564000D01*
X96520000Y-67564000D02*
X99060000Y-67564000D01*
X99060000Y-67564000D02*
X101092000Y-65532000D01*
X101092000Y-63144400D02*
X99872800Y-61925200D01*
X101092000Y-65532000D02*
X101092000Y-63144400D01*
X185061600Y-71399400D02*
X185061600Y-68221600D01*
X185061600Y-68221600D02*
X183896000Y-67056000D01*
X183896000Y-67056000D02*
X181864000Y-67056000D01*
X179588702Y-64780702D02*
X179588702Y-61859702D01*
X181864000Y-67056000D02*
X179588702Y-64780702D01*
X174546000Y-70231000D02*
X176276000Y-68501000D01*
X176276000Y-68501000D02*
X176276000Y-65024000D01*
X176276000Y-65024000D02*
X174244000Y-62992000D01*
X174244000Y-60020200D02*
X175996600Y-58267600D01*
X174244000Y-62992000D02*
X174244000Y-60020200D01*
X178349400Y-111296200D02*
X180489600Y-113436400D01*
X178349400Y-103962200D02*
X178349400Y-111296200D01*
X176556702Y-117028502D02*
X176897498Y-117028502D01*
X170069000Y-110540800D02*
X176556702Y-117028502D01*
X104876600Y-105181400D02*
X102616000Y-107442000D01*
X102616000Y-107442000D02*
X102616000Y-110236000D01*
X102616000Y-110236000D02*
X105664000Y-113284000D01*
X105664000Y-114935000D02*
X103581200Y-117017800D01*
X105664000Y-113284000D02*
X105664000Y-114935000D01*
X94361000Y-107797600D02*
X99989098Y-113425698D01*
X94361000Y-103987600D02*
X94361000Y-107797600D01*
X90005485Y-45169515D02*
X90085485Y-45169515D01*
X179832000Y-50800000D02*
X184857846Y-45774154D01*
X101092000Y-50800000D02*
X179832000Y-50800000D01*
X93472000Y-43180000D02*
X101092000Y-50800000D01*
X91995000Y-43180000D02*
X93472000Y-43180000D01*
X90005485Y-45169515D02*
X91995000Y-43180000D01*
X86772592Y-48402408D02*
X86756408Y-48402408D01*
X82423000Y-47498000D02*
X83693000Y-46228000D01*
X84598184Y-46228000D02*
X86772592Y-48402408D01*
X83693000Y-46228000D02*
X84598184Y-46228000D01*
X189329738Y-44834738D02*
X189353262Y-44834738D01*
X190246000Y-40386000D02*
X191516000Y-41656000D01*
X191516000Y-42648476D02*
X189329738Y-44834738D01*
X191516000Y-41656000D02*
X191516000Y-42648476D01*
X193103408Y-127263992D02*
X193176992Y-127263992D01*
X197612000Y-128270000D02*
X196342000Y-129540000D01*
X195379416Y-129540000D02*
X193103408Y-127263992D01*
X196342000Y-129540000D02*
X195379416Y-129540000D01*
X189870515Y-130496885D02*
X189870515Y-130550485D01*
X189870515Y-130496885D02*
X189932885Y-130496885D01*
X189870515Y-130496885D02*
X189870515Y-130561515D01*
X97917000Y-124968000D02*
X93907154Y-128977846D01*
X164592000Y-132588000D02*
X114300000Y-132588000D01*
X172212000Y-124968000D02*
X164592000Y-132588000D01*
X178816000Y-124968000D02*
X172212000Y-124968000D01*
X106680000Y-124968000D02*
X97917000Y-124968000D01*
X114300000Y-132588000D02*
X106680000Y-124968000D01*
X185420000Y-131572000D02*
X178816000Y-124968000D01*
X188795400Y-131572000D02*
X185420000Y-131572000D01*
X189870515Y-130496885D02*
X188795400Y-131572000D01*
X89495031Y-129931831D02*
X89397169Y-129931831D01*
X88519000Y-134366000D02*
X87376000Y-133223000D01*
X87376000Y-132050862D02*
X89495031Y-129931831D01*
X87376000Y-133223000D02*
X87376000Y-132050862D01*
X151130000Y-90890000D02*
X151130000Y-99060000D01*
X172720000Y-120650000D02*
X162560000Y-110490000D01*
X179070000Y-120650000D02*
X172720000Y-120650000D01*
X182372000Y-117348000D02*
X179070000Y-120650000D01*
X186690000Y-117348000D02*
X182372000Y-117348000D01*
X192223846Y-122881846D02*
X186690000Y-117348000D01*
X87677000Y-52832000D02*
X87677000Y-52879000D01*
X87811154Y-52886154D02*
X92456000Y-57531000D01*
X92456000Y-57531000D02*
X92456000Y-73660000D01*
X92456000Y-73660000D02*
X106172000Y-87376000D01*
X106172000Y-87376000D02*
X154432000Y-87376000D01*
X156210000Y-89154000D02*
X156210000Y-90890000D01*
X154432000Y-87376000D02*
X156210000Y-89154000D01*
X102616000Y-101600000D02*
X101981000Y-102235000D01*
X101981000Y-102235000D02*
X101981000Y-103987600D01*
X115316000Y-112268000D02*
X104648000Y-101600000D01*
X104648000Y-101600000D02*
X102616000Y-101600000D01*
X123444000Y-112268000D02*
X115316000Y-112268000D01*
X130556000Y-105156000D02*
X123444000Y-112268000D01*
X157480000Y-105156000D02*
X130556000Y-105156000D01*
X163830000Y-98806000D02*
X157480000Y-105156000D01*
X163830000Y-90890000D02*
X163830000Y-98806000D01*
X110264754Y-110569554D02*
X110029446Y-110569554D01*
X161290000Y-73110000D02*
X161290000Y-68834000D01*
X161290000Y-68834000D02*
X162560000Y-67564000D01*
X162560000Y-67564000D02*
X165100000Y-67564000D01*
X165100000Y-67564000D02*
X174752000Y-77216000D01*
X174752000Y-77216000D02*
X174752000Y-89916000D01*
X174752000Y-89916000D02*
X157988000Y-106680000D01*
X157988000Y-106680000D02*
X131064000Y-106680000D01*
X131064000Y-106680000D02*
X123952000Y-113792000D01*
X113487200Y-113792000D02*
X110264754Y-110569554D01*
X123952000Y-113792000D02*
X113487200Y-113792000D01*
X155956000Y-65532000D02*
X153670000Y-67818000D01*
X182880000Y-83820000D02*
X164592000Y-65532000D01*
X182880000Y-93472000D02*
X182880000Y-83820000D01*
X153670000Y-67818000D02*
X153670000Y-73110000D01*
X164592000Y-65532000D02*
X155956000Y-65532000D01*
X175457154Y-100894846D02*
X182880000Y-93472000D01*
X175457154Y-105152646D02*
X175457154Y-100894846D01*
X148590000Y-66294000D02*
X148590000Y-73110000D01*
X150368000Y-64516000D02*
X148590000Y-66294000D01*
X183896000Y-83312000D02*
X165100000Y-64516000D01*
X183896000Y-98552000D02*
X183896000Y-83312000D01*
X165100000Y-64516000D02*
X150368000Y-64516000D01*
X185969400Y-100625400D02*
X183896000Y-98552000D01*
X185969400Y-103962200D02*
X185969400Y-100625400D01*
X177441600Y-71399400D02*
X176197000Y-72644000D01*
X176197000Y-72644000D02*
X174244000Y-72644000D01*
X174244000Y-72644000D02*
X165100000Y-63500000D01*
X165100000Y-63500000D02*
X143764000Y-63500000D01*
X140970000Y-66294000D02*
X140970000Y-73110000D01*
X143764000Y-63500000D02*
X140970000Y-66294000D01*
X169157846Y-64842846D02*
X166799000Y-62484000D01*
X166799000Y-62484000D02*
X139192000Y-62484000D01*
X135890000Y-65786000D02*
X135890000Y-73110000D01*
X139192000Y-62484000D02*
X135890000Y-65786000D01*
X128270000Y-73110000D02*
X128270000Y-69342000D01*
X128270000Y-69342000D02*
X126492000Y-67564000D01*
X126492000Y-67564000D02*
X112776000Y-67564000D01*
X112776000Y-67564000D02*
X108712000Y-71628000D01*
X106361892Y-71628000D02*
X104892046Y-70158154D01*
X108712000Y-71628000D02*
X106361892Y-71628000D01*
X103632000Y-74676000D02*
X102108000Y-73152000D01*
X107696000Y-74676000D02*
X103632000Y-74676000D01*
X102108000Y-73152000D02*
X102108000Y-71374000D01*
X121920000Y-68580000D02*
X113792000Y-68580000D01*
X113792000Y-68580000D02*
X107696000Y-74676000D01*
X123190000Y-69850000D02*
X121920000Y-68580000D01*
X123190000Y-73110000D02*
X123190000Y-69850000D01*
M02*
